<?xml version="1.0" encoding="utf-8"?>
<!-- Generator: Adobe Illustrator 22.0.0, SVG Export Plug-In . SVG Version: 6.00 Build 0)  -->
<svg version="1.1" id="Layer_1" xmlns="http://www.w3.org/2000/svg" xmlns:xlink="http://www.w3.org/1999/xlink" x="0px" y="0px"
	 viewBox="0 0 938.2 83.3" style="enable-background:new 0 0 938.2 83.3;" xml:space="preserve">
<style type="text/css">
	.st0{clip-path:url(#SVGID_2_);}
	.st1{fill:#F8BBD0;}
	.st2{clip-path:url(#SVGID_4_);}
</style>
<g>
	<g>
		<defs>
			<rect id="SVGID_1_" x="-13.1" y="-69" width="338.2" height="191.1"/>
		</defs>
		<clipPath id="SVGID_2_">
			<use xlink:href="#SVGID_1_"  style="overflow:visible;"/>
		</clipPath>
		<g class="st0">
			<path class="st1" d="M39.6,42.5c0,0,8.9-0.2,24.5-0.4c7.8-0.1,17.3-0.2,28.2-0.4c10.9-0.2,23.1-0.3,36.5-0.4
				c13.4-0.1,27.9-0.2,43.2-0.4c15.3-0.1,31.5-0.3,48.2-0.3c33.5-0.1,69.1-0.2,104.8-0.3c35.7,0.1,71.4,0.2,104.8,0.3
				c16.7,0,32.9,0.2,48.2,0.3c15.3,0.1,29.8,0.3,43.2,0.4c13.4,0.1,25.6,0.3,36.5,0.4c10.9,0.2,20.4,0.3,28.2,0.4
				c15.6,0.3,24.5,0.4,24.5,0.4s-8.9,0.2-24.5,0.4c-7.8,0.1-17.3,0.2-28.2,0.4c-10.9,0.2-23.1,0.3-36.5,0.4
				c-13.4,0.1-27.9,0.2-43.2,0.4c-15.3,0.1-31.5,0.3-48.2,0.3c-33.5,0.1-69.1,0.2-104.8,0.3c-35.7-0.1-71.4-0.2-104.8-0.3
				c-16.7,0-32.9-0.2-48.2-0.3c-15.3-0.1-29.8-0.3-43.2-0.4c-13.4-0.1-25.6-0.3-36.5-0.4C81.5,43.2,72,43,64.2,42.9
				C48.6,42.6,39.6,42.5,39.6,42.5z"/>
			<g>
				<g>
					<path class="st1" d="M36.8,36.6c-0.1-0.9-0.6-1.7-0.9-2.6c-0.4-0.8-0.8-1.7-1.3-2.5c-0.9-1.7-1.8-3.3-2.7-4.9
						c-0.9-1.6-1.9-3.2-2.8-4.8c-1-1.6-1.9-3.2-3-4.6c-0.5-0.7-1-1.4-1.6-2c-0.6-0.7-1.2-1.3-1.9-1.9c-1.3-1.2-2.7-2.4-4.1-3.4
						c-1.5-1-3.1-1.8-4.9-2.2c-0.4-0.1-0.9-0.2-1.3-0.3c-0.4-0.1-0.8-0.1-1.3,0c-0.8,0.1-1.7,0.5-2.3,1c-0.7,0.5-1,1.3-1.3,2.1
						c-0.2,0.9-0.3,1.7-0.3,2.6c0.1,1.8,0.8,3.5,1.8,5c0.9,1.5,2.2,2.8,3.5,4c1.4,1.2,2.8,2.4,4.2,3.5c2.9,2.3,6,4.3,9.2,6
						c3.2,1.7,6.6,3.2,10,4.5l-1.2,3.1c-0.9-0.4-1.8-0.7-2.7-1c-1-0.3-1.9-0.5-2.9-0.6c-2-0.3-4.1-0.4-6.1-0.2c-0.5,0-1,0.1-1.5,0.2
						c-0.5,0.1-1,0.2-1.5,0.3c-1,0.2-2,0.5-3,0.8c-1,0.4-1.9,0.8-2.7,1.4c-0.4,0.3-0.8,0.7-1.1,1.1c-0.3,0.4-0.6,0.8-0.8,1.3l0,0
						c0,0.1-0.1,0.1-0.2,0.1c-0.1,0-0.1-0.1-0.1-0.2c0.1-0.5,0.3-1.1,0.6-1.6c0.3-0.5,0.6-1,1-1.4c0.8-0.8,1.7-1.5,2.7-2.1
						c1-0.5,2-1,3.1-1.3c0.5-0.2,1.1-0.3,1.6-0.5c0.5-0.1,1.1-0.3,1.6-0.4c1.1-0.2,2.2-0.4,3.4-0.4c1.1-0.1,2.3-0.1,3.4,0
						c2.3,0.2,4.5,0.6,6.7,1.6l-1.2,3.1c-3.7-1.2-7.2-2.8-10.5-4.8c-3.3-2-6.5-4.2-9.3-6.8c-1.4-1.3-2.8-2.6-4.1-4.1
						c-1.3-1.5-2.4-3-3.3-4.8c-0.9-1.8-1.4-3.7-1.5-5.7c0-1,0.1-2,0.4-2.9C6.7,9.3,7.2,8.3,8,7.6c0.8-0.7,1.8-1.1,2.8-1.3
						c0.5-0.1,1.1-0.1,1.6-0.1c0.5,0,1,0.1,1.5,0.1c2,0.2,3.9,0.9,5.6,1.7c1.8,0.9,3.4,2,4.9,3.2c0.7,0.6,1.5,1.3,2.1,2
						c0.7,0.7,1.4,1.6,1.9,2.4c2.2,3.2,3.9,6.6,5.4,10.1c0.8,1.7,1.5,3.5,2.1,5.3c0.3,0.9,0.6,1.8,0.8,2.8c0.2,0.9,0.4,1.9,0.3,2.9
						c0,0.1-0.1,0.2-0.2,0.1C36.8,36.8,36.8,36.7,36.8,36.6z"/>
					<path class="st1" d="M36.8,48.3c-0.1,0.9-0.6,1.7-0.9,2.6c-0.4,0.8-0.8,1.7-1.3,2.5c-0.9,1.7-1.8,3.3-2.7,4.9
						c-0.9,1.6-1.9,3.2-2.8,4.8c-1,1.6-1.9,3.2-3,4.6c-0.5,0.7-1,1.4-1.6,2c-0.6,0.7-1.2,1.3-1.9,1.9c-1.3,1.2-2.7,2.4-4.1,3.4
						c-1.5,1-3.1,1.8-4.9,2.2c-0.4,0.1-0.9,0.2-1.3,0.3c-0.4,0.1-0.8,0.1-1.3,0c-0.8-0.1-1.7-0.5-2.3-1c-0.7-0.5-1-1.3-1.3-2.1
						c-0.2-0.9-0.3-1.7-0.3-2.6c0.1-1.8,0.8-3.5,1.8-5c0.9-1.5,2.2-2.8,3.5-4c1.4-1.2,2.8-2.4,4.2-3.5c2.9-2.3,6-4.3,9.2-6
						c3.2-1.7,6.6-3.2,10-4.5l-1.2-3.1c-0.9,0.4-1.8,0.7-2.7,1c-1,0.3-1.9,0.5-2.9,0.6c-2,0.3-4.1,0.4-6.1,0.2c-0.5,0-1-0.1-1.5-0.2
						c-0.5-0.1-1-0.2-1.5-0.3c-1-0.2-2-0.5-3-0.8c-1-0.4-1.9-0.8-2.7-1.4c-0.4-0.3-0.8-0.7-1.1-1.1c-0.3-0.4-0.6-0.8-0.8-1.3l0,0
						c0-0.1-0.1-0.1-0.2-0.1c-0.1,0-0.1,0.1-0.1,0.2c0.1,0.5,0.3,1.1,0.6,1.6c0.3,0.5,0.6,1,1,1.4c0.8,0.8,1.7,1.5,2.7,2.1
						c1,0.5,2,1,3.1,1.3c0.5,0.2,1.1,0.3,1.6,0.5c0.5,0.1,1.1,0.3,1.6,0.4c1.1,0.2,2.2,0.4,3.4,0.4c1.1,0.1,2.3,0.1,3.4,0
						c2.3-0.2,4.5-0.6,6.7-1.6l-1.2-3.1c-3.7,1.2-7.2,2.8-10.5,4.8c-3.3,2-6.5,4.2-9.3,6.8c-1.4,1.3-2.8,2.6-4.1,4.1
						c-1.3,1.5-2.4,3-3.3,4.8c-0.9,1.8-1.4,3.7-1.5,5.7c0,1,0.1,2,0.4,2.9c0.3,0.9,0.7,1.9,1.6,2.6c0.8,0.7,1.8,1.1,2.8,1.3
						c0.5,0.1,1.1,0.1,1.6,0.1c0.5,0,1-0.1,1.5-0.1c2-0.2,3.9-0.9,5.6-1.7c1.8-0.9,3.4-2,4.9-3.2c0.7-0.6,1.5-1.3,2.1-2
						c0.7-0.7,1.4-1.6,1.9-2.4c2.2-3.2,3.9-6.6,5.4-10.1c0.8-1.7,1.5-3.5,2.1-5.3c0.3-0.9,0.6-1.8,0.8-2.8c0.2-0.9,0.4-1.9,0.3-2.9
						c0-0.1-0.1-0.2-0.2-0.1C36.8,48.2,36.8,48.2,36.8,48.3z"/>
				</g>
				<circle class="st1" cx="40.2" cy="42.6" r="3.8"/>
			</g>
			<g>
				<g>
					<path class="st1" d="M612.8,36.6c0.1-0.9,0.6-1.7,0.9-2.6c0.4-0.8,0.8-1.7,1.3-2.5c0.9-1.7,1.8-3.3,2.7-4.9
						c0.9-1.6,1.9-3.2,2.8-4.8c1-1.6,1.9-3.2,3-4.6c0.5-0.7,1-1.4,1.6-2c0.6-0.7,1.2-1.3,1.9-1.9c1.3-1.2,2.7-2.4,4.1-3.4
						c1.5-1,3.1-1.8,4.9-2.2c0.4-0.1,0.9-0.2,1.3-0.3c0.4-0.1,0.8-0.1,1.3,0c0.8,0.1,1.7,0.5,2.3,1c0.7,0.5,1,1.3,1.3,2.1
						c0.2,0.9,0.3,1.7,0.3,2.6c-0.1,1.8-0.8,3.5-1.8,5c-0.9,1.5-2.2,2.8-3.5,4c-1.4,1.2-2.8,2.4-4.2,3.5c-2.9,2.3-6,4.3-9.2,6
						c-3.2,1.7-6.6,3.2-10,4.5l1.2,3.1c0.9-0.4,1.8-0.7,2.7-1c1-0.3,1.9-0.5,2.9-0.6c2-0.3,4.1-0.4,6.1-0.2c0.5,0,1,0.1,1.5,0.2
						c0.5,0.1,1,0.2,1.5,0.3c1,0.2,2,0.5,3,0.8c1,0.4,1.9,0.8,2.7,1.4c0.4,0.3,0.8,0.7,1.1,1.1c0.3,0.4,0.6,0.8,0.8,1.3l0,0
						c0,0.1,0.1,0.1,0.2,0.1c0.1,0,0.1-0.1,0.1-0.2c-0.1-0.5-0.3-1.1-0.6-1.6c-0.3-0.5-0.6-1-1-1.4c-0.8-0.8-1.7-1.5-2.7-2.1
						c-1-0.5-2-1-3.1-1.3c-0.5-0.2-1.1-0.3-1.6-0.5c-0.5-0.1-1.1-0.3-1.6-0.4c-1.1-0.2-2.2-0.4-3.4-0.4c-1.1-0.1-2.3-0.1-3.4,0
						c-2.3,0.2-4.5,0.6-6.7,1.6l1.2,3.1c3.7-1.2,7.2-2.8,10.5-4.8c3.3-2,6.5-4.2,9.3-6.8c1.4-1.3,2.8-2.6,4.1-4.1
						c1.3-1.5,2.4-3,3.3-4.8c0.9-1.8,1.4-3.7,1.5-5.7c0-1-0.1-2-0.4-2.9c-0.3-0.9-0.7-1.9-1.6-2.6c-0.8-0.7-1.8-1.1-2.8-1.3
						c-0.5-0.1-1.1-0.1-1.6-0.1c-0.5,0-1,0.1-1.5,0.1c-2,0.2-3.9,0.9-5.6,1.7c-1.8,0.9-3.4,2-4.9,3.2c-0.7,0.6-1.5,1.3-2.1,2
						c-0.7,0.7-1.4,1.6-1.9,2.4c-2.2,3.2-3.9,6.6-5.4,10.1c-0.8,1.7-1.5,3.5-2.1,5.3c-0.3,0.9-0.6,1.8-0.8,2.8
						c-0.2,0.9-0.4,1.9-0.3,2.9c0,0.1,0.1,0.2,0.2,0.1C612.7,36.8,612.7,36.7,612.8,36.6z"/>
					<path class="st1" d="M612.8,48.3c0.1,0.9,0.6,1.7,0.9,2.6c0.4,0.8,0.8,1.7,1.3,2.5c0.9,1.7,1.8,3.3,2.7,4.9
						c0.9,1.6,1.9,3.2,2.8,4.8c1,1.6,1.9,3.2,3,4.6c0.5,0.7,1,1.4,1.6,2c0.6,0.7,1.2,1.3,1.9,1.9c1.3,1.2,2.7,2.4,4.1,3.4
						c1.5,1,3.1,1.8,4.9,2.2c0.4,0.1,0.9,0.2,1.3,0.3c0.4,0.1,0.8,0.1,1.3,0c0.8-0.1,1.7-0.5,2.3-1c0.7-0.5,1-1.3,1.3-2.1
						c0.2-0.9,0.3-1.7,0.3-2.6c-0.1-1.8-0.8-3.5-1.8-5c-0.9-1.5-2.2-2.8-3.5-4c-1.4-1.2-2.8-2.4-4.2-3.5c-2.9-2.3-6-4.3-9.2-6
						c-3.2-1.7-6.6-3.2-10-4.5l1.2-3.1c0.9,0.4,1.8,0.7,2.7,1c1,0.3,1.9,0.5,2.9,0.6c2,0.3,4.1,0.4,6.1,0.2c0.5,0,1-0.1,1.5-0.2
						c0.5-0.1,1-0.2,1.5-0.3c1-0.2,2-0.5,3-0.8c1-0.4,1.9-0.8,2.7-1.4c0.4-0.3,0.8-0.7,1.1-1.1c0.3-0.4,0.6-0.8,0.8-1.3l0,0
						c0-0.1,0.1-0.1,0.2-0.1c0.1,0,0.1,0.1,0.1,0.2c-0.1,0.5-0.3,1.1-0.6,1.6c-0.3,0.5-0.6,1-1,1.4c-0.8,0.8-1.7,1.5-2.7,2.1
						c-1,0.5-2,1-3.1,1.3c-0.5,0.2-1.1,0.3-1.6,0.5c-0.5,0.1-1.1,0.3-1.6,0.4c-1.1,0.2-2.2,0.4-3.4,0.4c-1.1,0.1-2.3,0.1-3.4,0
						c-2.3-0.2-4.5-0.6-6.7-1.6l1.2-3.1c3.7,1.2,7.2,2.8,10.5,4.8c3.3,2,6.5,4.2,9.3,6.8c1.4,1.3,2.8,2.6,4.1,4.1
						c1.3,1.5,2.4,3,3.3,4.8c0.9,1.8,1.4,3.7,1.5,5.7c0,1-0.1,2-0.4,2.9c-0.3,0.9-0.7,1.9-1.6,2.6c-0.8,0.7-1.8,1.1-2.8,1.3
						c-0.5,0.1-1.1,0.1-1.6,0.1c-0.5,0-1-0.1-1.5-0.1c-2-0.2-3.9-0.9-5.6-1.7c-1.8-0.9-3.4-2-4.9-3.2c-0.7-0.6-1.5-1.3-2.1-2
						c-0.7-0.7-1.4-1.6-1.9-2.4c-2.2-3.2-3.9-6.6-5.4-10.1c-0.8-1.7-1.5-3.5-2.1-5.3c-0.3-0.9-0.6-1.8-0.8-2.8
						c-0.2-0.9-0.4-1.9-0.3-2.9c0-0.1,0.1-0.2,0.2-0.1C612.7,48.2,612.7,48.2,612.8,48.3z"/>
				</g>
				<circle class="st1" cx="609.3" cy="42.6" r="3.8"/>
			</g>
		</g>
	</g>
	<g>
		<defs>
			
				<rect id="SVGID_3_" x="614.4" y="-69" transform="matrix(-1 -4.490598e-11 4.490598e-11 -1 1566.9777 53.1194)" width="338.2" height="191.1"/>
		</defs>
		<clipPath id="SVGID_4_">
			<use xlink:href="#SVGID_3_"  style="overflow:visible;"/>
		</clipPath>
		<g class="st2">
			<path class="st1" d="M899.8,42.5c0,0-8.9-0.2-24.5-0.4c-7.8-0.1-17.3-0.2-28.2-0.4c-10.9-0.2-23.1-0.3-36.5-0.4
				c-13.4-0.1-27.9-0.2-43.2-0.4c-15.3-0.1-31.5-0.3-48.2-0.3c-33.5-0.1-69.1-0.2-104.8-0.3c-35.7,0.1-71.4,0.2-104.8,0.3
				c-16.7,0-32.9,0.2-48.2,0.3c-15.3,0.1-29.8,0.3-43.2,0.4c-13.4,0.1-25.6,0.3-36.5,0.4c-10.9,0.2-20.4,0.3-28.2,0.4
				c-15.6,0.3-24.5,0.4-24.5,0.4s8.9,0.2,24.5,0.4c7.8,0.1,17.3,0.2,28.2,0.4c10.9,0.2,23.1,0.3,36.5,0.4
				c13.4,0.1,27.9,0.2,43.2,0.4c15.3,0.1,31.5,0.3,48.2,0.3c33.5,0.1,69.1,0.2,104.8,0.3c35.7-0.1,71.4-0.2,104.8-0.3
				c16.7,0,32.9-0.2,48.2-0.3c15.3-0.1,29.8-0.3,43.2-0.4c13.4-0.1,25.6-0.3,36.5-0.4c10.9-0.2,20.4-0.3,28.2-0.4
				C890.9,42.6,899.8,42.5,899.8,42.5z"/>
			<g>
				<g>
					<path class="st1" d="M902.7,36.6c0.1-0.9,0.6-1.7,0.9-2.6c0.4-0.8,0.8-1.7,1.3-2.5c0.9-1.7,1.8-3.3,2.7-4.9
						c0.9-1.6,1.9-3.2,2.8-4.8c1-1.6,1.9-3.2,3-4.6c0.5-0.7,1-1.4,1.6-2c0.6-0.7,1.2-1.3,1.9-1.9c1.3-1.2,2.7-2.4,4.1-3.4
						c1.5-1,3.1-1.8,4.9-2.2c0.4-0.1,0.9-0.2,1.3-0.3c0.4-0.1,0.8-0.1,1.3,0c0.8,0.1,1.7,0.5,2.3,1c0.7,0.5,1,1.3,1.3,2.1
						c0.2,0.9,0.3,1.7,0.3,2.6c-0.1,1.8-0.8,3.5-1.8,5c-0.9,1.5-2.2,2.8-3.5,4c-1.4,1.2-2.8,2.4-4.2,3.5c-2.9,2.3-6,4.3-9.2,6
						c-3.2,1.7-6.6,3.2-10,4.5l1.2,3.1c0.9-0.4,1.8-0.7,2.7-1c1-0.3,1.9-0.5,2.9-0.6c2-0.3,4.1-0.4,6.1-0.2c0.5,0,1,0.1,1.5,0.2
						c0.5,0.1,1,0.2,1.5,0.3c1,0.2,2,0.5,3,0.8c1,0.4,1.9,0.8,2.7,1.4c0.4,0.3,0.8,0.7,1.1,1.1c0.3,0.4,0.6,0.8,0.8,1.3l0,0
						c0,0.1,0.1,0.1,0.2,0.1c0.1,0,0.1-0.1,0.1-0.2c-0.1-0.5-0.3-1.1-0.6-1.6c-0.3-0.5-0.6-1-1-1.4c-0.8-0.8-1.7-1.5-2.7-2.1
						c-1-0.5-2-1-3.1-1.3c-0.5-0.2-1.1-0.3-1.6-0.5c-0.5-0.1-1.1-0.3-1.6-0.4c-1.1-0.2-2.2-0.4-3.4-0.4c-1.1-0.1-2.3-0.1-3.4,0
						c-2.3,0.2-4.5,0.6-6.7,1.6l1.2,3.1c3.7-1.2,7.2-2.8,10.5-4.8c3.3-2,6.5-4.2,9.3-6.8c1.4-1.3,2.8-2.6,4.1-4.1
						c1.3-1.5,2.4-3,3.3-4.8c0.9-1.8,1.4-3.7,1.5-5.7c0-1-0.1-2-0.4-2.9c-0.3-0.9-0.7-1.9-1.6-2.6c-0.8-0.7-1.8-1.1-2.8-1.3
						c-0.5-0.1-1.1-0.1-1.6-0.1c-0.5,0-1,0.1-1.5,0.1c-2,0.2-3.9,0.9-5.6,1.7c-1.8,0.9-3.4,2-4.9,3.2c-0.7,0.6-1.5,1.3-2.1,2
						c-0.7,0.7-1.4,1.6-1.9,2.4c-2.2,3.2-3.9,6.6-5.4,10.1c-0.8,1.7-1.5,3.5-2.1,5.3c-0.3,0.9-0.6,1.8-0.8,2.8
						c-0.2,0.9-0.4,1.9-0.3,2.9c0,0.1,0.1,0.2,0.2,0.1C902.7,36.8,902.7,36.7,902.7,36.6z"/>
					<path class="st1" d="M902.7,48.3c0.1,0.9,0.6,1.7,0.9,2.6c0.4,0.8,0.8,1.7,1.3,2.5c0.9,1.7,1.8,3.3,2.7,4.9
						c0.9,1.6,1.9,3.2,2.8,4.8c1,1.6,1.9,3.2,3,4.6c0.5,0.7,1,1.4,1.6,2c0.6,0.7,1.2,1.3,1.9,1.9c1.3,1.2,2.7,2.4,4.1,3.4
						c1.5,1,3.1,1.8,4.9,2.2c0.4,0.1,0.9,0.2,1.3,0.3c0.4,0.1,0.8,0.1,1.3,0c0.8-0.1,1.7-0.5,2.3-1c0.7-0.5,1-1.3,1.3-2.1
						c0.2-0.9,0.3-1.7,0.3-2.6c-0.1-1.8-0.8-3.5-1.8-5c-0.9-1.5-2.2-2.8-3.5-4c-1.4-1.2-2.8-2.4-4.2-3.5c-2.9-2.3-6-4.3-9.2-6
						c-3.2-1.7-6.6-3.2-10-4.5l1.2-3.1c0.9,0.4,1.8,0.7,2.7,1c1,0.3,1.9,0.5,2.9,0.6c2,0.3,4.1,0.4,6.1,0.2c0.5,0,1-0.1,1.5-0.2
						c0.5-0.1,1-0.2,1.5-0.3c1-0.2,2-0.5,3-0.8c1-0.4,1.9-0.8,2.7-1.4c0.4-0.3,0.8-0.7,1.1-1.1c0.3-0.4,0.6-0.8,0.8-1.3l0,0
						c0-0.1,0.1-0.1,0.2-0.1c0.1,0,0.1,0.1,0.1,0.2c-0.1,0.5-0.3,1.1-0.6,1.6c-0.3,0.5-0.6,1-1,1.4c-0.8,0.8-1.7,1.5-2.7,2.1
						c-1,0.5-2,1-3.1,1.3c-0.5,0.2-1.1,0.3-1.6,0.5c-0.5,0.1-1.1,0.3-1.6,0.4c-1.1,0.2-2.2,0.4-3.4,0.4c-1.1,0.1-2.3,0.1-3.4,0
						c-2.3-0.2-4.5-0.6-6.7-1.6l1.2-3.1c3.7,1.2,7.2,2.8,10.5,4.8c3.3,2,6.5,4.2,9.3,6.8c1.4,1.3,2.8,2.6,4.1,4.1
						c1.3,1.5,2.4,3,3.3,4.8c0.9,1.8,1.4,3.7,1.5,5.7c0,1-0.1,2-0.4,2.9c-0.3,0.9-0.7,1.9-1.6,2.6c-0.8,0.7-1.8,1.1-2.8,1.3
						c-0.5,0.1-1.1,0.1-1.6,0.1c-0.5,0-1-0.1-1.5-0.1c-2-0.2-3.9-0.9-5.6-1.7c-1.8-0.9-3.4-2-4.9-3.2c-0.7-0.6-1.5-1.3-2.1-2
						c-0.7-0.7-1.4-1.6-1.9-2.4c-2.2-3.2-3.9-6.6-5.4-10.1c-0.8-1.7-1.5-3.5-2.1-5.3c-0.3-0.9-0.6-1.8-0.8-2.8
						c-0.2-0.9-0.4-1.9-0.3-2.9c0-0.1,0.1-0.2,0.2-0.1C902.7,48.2,902.7,48.2,902.7,48.3z"/>
				</g>
				<circle class="st1" cx="899.3" cy="42.6" r="3.8"/>
			</g>
			<g>
				<g>
					<path class="st1" d="M326.7,36.6c-0.1-0.9-0.6-1.7-0.9-2.6c-0.4-0.8-0.8-1.7-1.3-2.5c-0.9-1.7-1.8-3.3-2.7-4.9
						c-0.9-1.6-1.9-3.2-2.8-4.8c-1-1.6-1.9-3.2-3-4.6c-0.5-0.7-1-1.4-1.6-2c-0.6-0.7-1.2-1.3-1.9-1.9c-1.3-1.2-2.7-2.4-4.1-3.4
						c-1.5-1-3.1-1.8-4.9-2.2c-0.4-0.1-0.9-0.2-1.3-0.3c-0.4-0.1-0.8-0.1-1.3,0c-0.8,0.1-1.7,0.5-2.3,1c-0.7,0.5-1,1.3-1.3,2.1
						c-0.2,0.9-0.3,1.7-0.3,2.6c0.1,1.8,0.8,3.5,1.8,5c0.9,1.5,2.2,2.8,3.5,4c1.4,1.2,2.8,2.4,4.2,3.5c2.9,2.3,6,4.3,9.2,6
						c3.2,1.7,6.6,3.2,10,4.5l-1.2,3.1c-0.9-0.4-1.8-0.7-2.7-1c-1-0.3-1.9-0.5-2.9-0.6c-2-0.3-4.1-0.4-6.1-0.2c-0.5,0-1,0.1-1.5,0.2
						c-0.5,0.1-1,0.2-1.5,0.3c-1,0.2-2,0.5-3,0.8c-1,0.4-1.9,0.8-2.7,1.4c-0.4,0.3-0.8,0.7-1.1,1.1c-0.3,0.4-0.6,0.8-0.8,1.3l0,0
						c0,0.1-0.1,0.1-0.2,0.1c-0.1,0-0.1-0.1-0.1-0.2c0.1-0.5,0.3-1.1,0.6-1.6c0.3-0.5,0.6-1,1-1.4c0.8-0.8,1.7-1.5,2.7-2.1
						c1-0.5,2-1,3.1-1.3c0.5-0.2,1.1-0.3,1.6-0.5c0.5-0.1,1.1-0.3,1.6-0.4c1.1-0.2,2.2-0.4,3.4-0.4c1.1-0.1,2.3-0.1,3.4,0
						c2.3,0.2,4.5,0.6,6.7,1.6l-1.2,3.1c-3.7-1.2-7.2-2.8-10.5-4.8c-3.3-2-6.5-4.2-9.3-6.8c-1.4-1.3-2.8-2.6-4.1-4.1
						c-1.3-1.5-2.4-3-3.3-4.8c-0.9-1.8-1.4-3.7-1.5-5.7c0-1,0.1-2,0.4-2.9c0.3-0.9,0.7-1.9,1.6-2.6c0.8-0.7,1.8-1.1,2.8-1.3
						c0.5-0.1,1.1-0.1,1.6-0.1c0.5,0,1,0.1,1.5,0.1c2,0.2,3.9,0.9,5.6,1.7c1.8,0.9,3.4,2,4.9,3.2c0.7,0.6,1.5,1.3,2.1,2
						c0.7,0.7,1.4,1.6,1.9,2.4c2.2,3.2,3.9,6.6,5.4,10.1c0.8,1.7,1.5,3.5,2.1,5.3c0.3,0.9,0.6,1.8,0.8,2.8c0.2,0.9,0.4,1.9,0.3,2.9
						c0,0.1-0.1,0.2-0.2,0.1C326.8,36.8,326.7,36.7,326.7,36.6z"/>
					<path class="st1" d="M326.7,48.3c-0.1,0.9-0.6,1.7-0.9,2.6c-0.4,0.8-0.8,1.7-1.3,2.5c-0.9,1.7-1.8,3.3-2.7,4.9
						c-0.9,1.6-1.9,3.2-2.8,4.8c-1,1.6-1.9,3.2-3,4.6c-0.5,0.7-1,1.4-1.6,2c-0.6,0.7-1.2,1.3-1.9,1.9c-1.3,1.2-2.7,2.4-4.1,3.4
						c-1.5,1-3.1,1.8-4.9,2.2c-0.4,0.1-0.9,0.2-1.3,0.3c-0.4,0.1-0.8,0.1-1.3,0c-0.8-0.1-1.7-0.5-2.3-1c-0.7-0.5-1-1.3-1.3-2.1
						c-0.2-0.9-0.3-1.7-0.3-2.6c0.1-1.8,0.8-3.5,1.8-5c0.9-1.5,2.2-2.8,3.5-4c1.4-1.2,2.8-2.4,4.2-3.5c2.9-2.3,6-4.3,9.2-6
						c3.2-1.7,6.6-3.2,10-4.5l-1.2-3.1c-0.9,0.4-1.8,0.7-2.7,1c-1,0.3-1.9,0.5-2.9,0.6c-2,0.3-4.1,0.4-6.1,0.2c-0.5,0-1-0.1-1.5-0.2
						c-0.5-0.1-1-0.2-1.5-0.3c-1-0.2-2-0.5-3-0.8c-1-0.4-1.9-0.8-2.7-1.4c-0.4-0.3-0.8-0.7-1.1-1.1c-0.3-0.4-0.6-0.8-0.8-1.3l0,0
						c0-0.1-0.1-0.1-0.2-0.1c-0.1,0-0.1,0.1-0.1,0.2c0.1,0.5,0.3,1.1,0.6,1.6c0.3,0.5,0.6,1,1,1.4c0.8,0.8,1.7,1.5,2.7,2.1
						c1,0.5,2,1,3.1,1.3c0.5,0.2,1.1,0.3,1.6,0.5c0.5,0.1,1.1,0.3,1.6,0.4c1.1,0.2,2.2,0.4,3.4,0.4c1.1,0.1,2.3,0.1,3.4,0
						c2.3-0.2,4.5-0.6,6.7-1.6l-1.2-3.1c-3.7,1.2-7.2,2.8-10.5,4.8c-3.3,2-6.5,4.2-9.3,6.8c-1.4,1.3-2.8,2.6-4.1,4.1
						c-1.3,1.5-2.4,3-3.3,4.8c-0.9,1.8-1.4,3.7-1.5,5.7c0,1,0.1,2,0.4,2.9c0.3,0.9,0.7,1.9,1.6,2.6c0.8,0.7,1.8,1.1,2.8,1.3
						c0.5,0.1,1.1,0.1,1.6,0.1c0.5,0,1-0.1,1.5-0.1c2-0.2,3.9-0.9,5.6-1.7c1.8-0.9,3.4-2,4.9-3.2c0.7-0.6,1.5-1.3,2.1-2
						c0.7-0.7,1.4-1.6,1.9-2.4c2.2-3.2,3.9-6.6,5.4-10.1c0.8-1.7,1.5-3.5,2.1-5.3c0.3-0.9,0.6-1.8,0.8-2.8c0.2-0.9,0.4-1.9,0.3-2.9
						c0-0.1-0.1-0.2-0.2-0.1C326.8,48.2,326.7,48.2,326.7,48.3z"/>
				</g>
				<circle class="st1" cx="330.1" cy="42.6" r="3.8"/>
			</g>
		</g>
	</g>
</g>
</svg>
